<svg width="252" height="252" viewBox="0 0 252 252" fill="none" xmlns="http://www.w3.org/2000/svg">
<g clip-path="url(#clip0_124_758)">
<path fill-rule="evenodd" clip-rule="evenodd" d="M0 0H252V252H0V0Z" fill="#636575"/>
<path fill-rule="evenodd" clip-rule="evenodd" d="M252 126.018L126.018 252L0 126.018H252Z" fill="#E9EAF0"/>
<path fill-rule="evenodd" clip-rule="evenodd" d="M0 126.018L126.018 0L252 126.018H0Z" fill="#9CFB11"/>
<path fill-rule="evenodd" clip-rule="evenodd" d="M155.646 222.372H222.372V155.646L155.646 222.372Z" fill="#191D34"/>
<path fill-rule="evenodd" clip-rule="evenodd" d="M29.6636 155.646V222.372H96.3539L29.6636 155.646Z" fill="#555869"/>
<path fill-rule="evenodd" clip-rule="evenodd" d="M96.3539 29.6636H29.6636V96.3539L96.3539 29.6636Z" fill="#191D34"/>
<path fill-rule="evenodd" clip-rule="evenodd" d="M222.372 29.6636H155.646L222.372 96.3539V29.6636Z" fill="#555869"/>
<path fill-rule="evenodd" clip-rule="evenodd" d="M222.372 155.646L155.646 222.372H96.3539L29.6636 155.646V126.018H222.372V155.646Z" fill="#A3A5AE"/>
<path fill-rule="evenodd" clip-rule="evenodd" d="M155.646 29.6636H96.3539L29.6636 96.3539V126.018H222.372V96.3539L155.646 29.6636Z" fill="#9395A0"/>
<path fill-rule="evenodd" clip-rule="evenodd" d="M126.018 69.8965C157.02 69.8965 182.104 95.0155 182.104 126.018C182.104 157.02 156.985 182.139 126.018 182.139C95.0507 182.139 69.8965 157.02 69.8965 126.018C69.8965 95.0155 95.0155 69.8965 126.018 69.8965Z" fill="#EDEDEF"/>
<path fill-rule="evenodd" clip-rule="evenodd" d="M176.396 101.357C180.06 108.79 182.104 117.175 182.104 126.018C182.104 134.86 180.06 143.245 176.396 150.678C160.754 156.738 143.773 160.085 125.982 160.085C108.191 160.085 91.2102 156.773 75.5681 150.678C71.9042 143.245 69.8608 134.86 69.8608 126.018C69.8608 117.175 71.9042 108.79 75.5681 101.357C91.2102 95.297 108.191 91.9854 125.982 91.9854C143.773 91.9854 160.754 95.297 176.396 101.357Z" fill="#EDEDEF"/>
<path fill-rule="evenodd" clip-rule="evenodd" d="M217.334 126.018C192.849 147.226 160.931 160.05 126.018 160.05C91.1048 160.05 59.1513 147.226 34.7017 126.018C59.1865 104.809 91.1048 91.9854 126.018 91.9854C160.931 91.9854 192.884 104.809 217.334 126.018Z" fill="#191D34"/>
<path fill-rule="evenodd" clip-rule="evenodd" d="M176.396 150.643C160.754 156.703 143.773 160.05 125.982 160.05C108.191 160.05 91.2102 156.738 75.5681 150.643C71.9042 143.21 69.8608 134.825 69.8608 125.982C69.8608 117.14 71.9042 108.755 75.5681 101.321C91.2102 95.2618 108.191 91.9502 125.982 91.9502C143.773 91.9502 160.754 95.2618 176.396 101.321C180.06 108.755 182.104 117.14 182.104 125.982C182.104 134.825 180.06 143.21 176.396 150.643Z" fill="#191D34"/>
<path fill-rule="evenodd" clip-rule="evenodd" d="M126.018 97.0586C142.012 97.0586 154.941 110.023 154.941 125.982C154.941 141.942 141.977 154.906 126.018 154.906C110.058 154.906 97.0938 141.942 97.0938 125.982C97.0938 110.023 110.058 97.0586 126.018 97.0586Z" fill="#BABBC2"/>
<path fill-rule="evenodd" clip-rule="evenodd" d="M126.264 110.904L133.169 122.847L140.074 134.825H126.264H112.454L119.359 122.847L126.264 110.904Z" fill="#9CFB11"/>
<path fill-rule="evenodd" clip-rule="evenodd" d="M222.372 18.6016C228.466 18.6016 233.399 23.5338 233.399 29.6285C233.399 35.7233 228.466 40.6555 222.372 40.6555C216.277 40.6555 211.345 35.7233 211.345 29.6285C211.345 23.5338 216.277 18.6016 222.372 18.6016Z" fill="#EDEDEF"/>
<path fill-rule="evenodd" clip-rule="evenodd" d="M29.6637 211.345C35.7585 211.345 40.6907 216.277 40.6907 222.372C40.6907 228.466 35.7585 233.399 29.6637 233.399C23.5689 233.399 18.6367 228.466 18.6367 222.372C18.6367 216.277 23.5689 211.345 29.6637 211.345Z" fill="#EDEDEF"/>
<path fill-rule="evenodd" clip-rule="evenodd" d="M222.372 211.345C228.466 211.345 233.399 216.277 233.399 222.372C233.399 228.466 228.466 233.399 222.372 233.399C216.277 233.399 211.345 228.466 211.345 222.372C211.345 216.277 216.277 211.345 222.372 211.345Z" fill="#EDEDEF"/>
</g>
<defs>
<clipPath id="clip0_124_758">
<rect width="252" height="252" rx="20" fill="white"/>
</clipPath>
</defs>
</svg>
