<svg width="253" height="56" viewBox="0 0 253 56" fill="none" xmlns="http://www.w3.org/2000/svg">
<rect y="0.96582" width="253" height="54.2656" rx="5" fill="white"/>
<path d="M20.29 35.1424L18.3281 21.8096H20.3852L21.9851 33.752H22.2899L24.3469 21.8096H27.9468L30.0039 33.752H30.3086L31.8895 21.8096H33.9466L31.9847 35.1424H28.3849L26.2897 23.0286H25.985L23.9089 35.1424H20.29Z" fill="#0F172A"/>
<path d="M38.4553 35.1424V21.8096H46.855V23.6762H40.5124V27.5046H46.3217V29.3712H40.5124V33.2758H46.9502V35.1424H38.4553Z" fill="#0F172A"/>
<path d="M58.9017 35.1424V21.8096H60.9588V33.2758H67.3775V35.1424H58.9017Z" fill="#0F172A"/>
<path d="M76.3384 35.409C74.7003 35.409 73.3988 34.9519 72.4337 34.0377C71.4687 33.1107 70.9862 31.7774 70.9862 30.0378V26.9141C70.9862 25.1745 71.4687 23.8476 72.4337 22.9333C73.3988 22.0064 74.7003 21.5429 76.3384 21.5429C77.9764 21.5429 79.2779 22.0064 80.243 22.9333C81.2207 23.8476 81.7096 25.1745 81.7096 26.9141V30.0378C81.7096 31.7774 81.2207 33.1107 80.243 34.0377C79.2779 34.9519 77.9764 35.409 76.3384 35.409ZM76.3384 33.5615C77.3923 33.5615 78.205 33.2567 78.7764 32.6472C79.3478 32.025 79.6335 31.1806 79.6335 30.114V26.8379C79.6335 25.7713 79.3478 24.9333 78.7764 24.3238C78.205 23.7016 77.3923 23.3905 76.3384 23.3905C75.3098 23.3905 74.5035 23.7016 73.9194 24.3238C73.3353 24.9333 73.0432 25.7713 73.0432 26.8379V30.114C73.0432 31.1806 73.3353 32.025 73.9194 32.6472C74.5035 33.2567 75.3098 33.5615 76.3384 33.5615Z" fill="#0F172A"/>
<path d="M89.0655 35.1424L85.3514 21.8096H87.4846L90.7226 33.8472H90.9702L94.1891 21.8096H96.3224L92.6273 35.1424H89.0655Z" fill="#0F172A"/>
<path d="M100.611 35.1424V21.8096H109.01V23.6762H102.668V27.5046H108.477V29.3712H102.668V33.2758H109.106V35.1424H100.611Z" fill="#0F172A"/>
<path d="M123.698 35.1424V23.6762H119.603V21.8096H129.851V23.6762H125.755V35.1424H123.698Z" fill="#0F172A"/>
<path d="M134.191 35.1424V21.8096H136.248V27.5236H141.848V21.8096H143.905V35.1424H141.848V29.3902H136.248V35.1424H134.191Z" fill="#0F172A"/>
<path d="M154.157 35.409C153.103 35.409 152.195 35.2186 151.433 34.8376C150.684 34.4567 150.1 33.9107 149.681 33.1996C149.275 32.4758 149.072 31.5997 149.072 30.5711V21.8096H151.148V30.6283C151.148 31.5679 151.408 32.2917 151.929 32.7996C152.449 33.3075 153.192 33.5615 154.157 33.5615C155.122 33.5615 155.865 33.3075 156.386 32.7996C156.906 32.2917 157.166 31.5679 157.166 30.6283V21.8096H159.224V30.5711C159.224 31.5997 159.02 32.4758 158.614 33.1996C158.208 33.9107 157.624 34.4567 156.862 34.8376C156.1 35.2186 155.198 35.409 154.157 35.409Z" fill="#0F172A"/>
<path d="M162.016 36.7955L167.616 19.6533H169.578L163.978 36.7955H162.016Z" fill="#0F172A"/>
<path d="M177.652 36.7955L172.052 19.6533H174.033L179.633 36.7955H177.652Z" fill="#0F172A"/>
<path d="M182.164 36.7955L187.764 19.6533H189.726L184.126 36.7955H182.164Z" fill="#0F172A"/>
<path d="M193.251 35.1424V33.3139H195.041V23.6381H193.251V21.8096H198.584C200.362 21.8096 201.721 22.2603 202.66 23.1619C203.613 24.0635 204.089 25.4221 204.089 27.2379V29.7331C204.089 31.5489 203.613 32.9076 202.66 33.8091C201.721 34.698 200.362 35.1424 198.584 35.1424H193.251ZM197.118 33.2758H198.603C199.759 33.2758 200.616 32.9837 201.175 32.3996C201.733 31.8155 202.013 30.9457 202.013 29.7902V27.1617C202.013 25.9935 201.733 25.1237 201.175 24.5523C200.616 23.9809 199.759 23.6952 198.603 23.6952H197.118V33.2758Z" fill="#0F172A"/>
<path d="M208.889 35.1424V21.8096H217.289V23.6762H210.946V27.5046H216.756V29.3712H210.946V33.2758H217.384V35.1424H208.889Z" fill="#0F172A"/>
<path d="M222.005 35.1424V21.8096H227.605C228.43 21.8096 229.154 21.9556 229.776 22.2476C230.411 22.527 230.9 22.9333 231.243 23.4666C231.598 24 231.776 24.6349 231.776 25.3713V25.5809C231.776 26.4189 231.573 27.0919 231.166 27.5998C230.773 28.095 230.29 28.4442 229.719 28.6474V28.9521C230.201 28.9775 230.589 29.1426 230.881 29.4474C231.173 29.7394 231.319 30.1648 231.319 30.7235V35.1424H229.243V31.0092C229.243 30.6664 229.154 30.3934 228.976 30.1902C228.798 29.987 228.513 29.8854 228.119 29.8854H224.062V35.1424H222.005ZM224.062 28.0189H227.376C228.113 28.0189 228.684 27.8347 229.09 27.4665C229.497 27.0856 229.7 26.5713 229.7 25.9237V25.7713C229.7 25.1237 229.497 24.6158 229.09 24.2476C228.697 23.8666 228.125 23.6762 227.376 23.6762H224.062V28.0189Z" fill="#0F172A"/>
</svg>
